<svg width="20" height="32" viewBox="0 0 20 32" fill="none" xmlns="http://www.w3.org/2000/svg">
<path d="M6.25003 31.9974C6.25003 27.2655 6.25003 22.5531 6.25003 17.7918C4.34518 17.7918 2.47538 17.7918 0.558838 17.7918C0.558838 15.9146 0.558838 14.0962 0.558838 12.219C2.42863 12.219 4.31012 12.219 6.25003 12.219C6.25003 10.86 6.17992 9.55973 6.27341 8.2692C6.34352 7.24264 6.47207 6.18675 6.82266 5.20907C7.65238 2.89197 9.62735 1.52322 12.4204 0.9855C14.594 0.565099 16.791 0.809518 18.988 0.907286C19.2802 0.917063 19.5606 0.965946 19.8879 0.995277C19.8879 2.61822 19.8879 4.24117 19.8879 5.94233C19.6541 5.94233 19.3854 5.94233 19.1283 5.94233C17.9479 5.97166 16.756 5.9521 15.5756 6.03032C14.0447 6.13786 13.2968 6.71469 13.1917 7.99545C13.0865 9.37398 13.1683 10.7525 13.1683 12.1897C15.3419 12.1897 17.4922 12.1897 19.7126 12.1897C19.4204 14.0668 19.1399 15.8853 18.8595 17.7527C16.9897 17.7527 15.1082 17.7527 13.18 17.7527C13.18 22.5237 13.18 27.2361 13.18 31.9974C10.8427 31.9974 8.58728 31.9974 6.25003 31.9974Z" fill="white"/>
</svg>
