<svg width="32" height="31" viewBox="0 0 32 31" fill="none" xmlns="http://www.w3.org/2000/svg">
<path d="M16.0645 30.6309C13.8344 30.6309 11.6044 30.7064 9.38405 30.612C6.35624 30.4799 3.7802 29.3944 2.1077 26.742C1.3195 25.4866 0.877348 24.0991 0.848512 22.636C0.762003 18.4073 0.733167 14.1786 0.742779 9.9499C0.742779 8.31694 0.973469 6.68399 1.72321 5.18317C3.09774 2.45528 5.42387 1.00167 8.44206 0.727936C12.7579 0.331495 17.0833 0.501398 21.4088 0.567472C22.8794 0.58635 24.3501 0.680741 25.7631 1.16213C28.9254 2.25706 30.6652 4.513 31.1939 7.7034C31.3573 8.69451 31.3957 9.70449 31.3957 10.705C31.4246 14.037 31.415 17.3784 31.3957 20.7104C31.3861 22.4283 31.2612 24.1368 30.5403 25.732C29.4156 28.2239 27.474 29.7908 24.773 30.3005C23.2158 30.5931 21.5914 30.6215 20.0054 30.697C18.6982 30.7536 17.3813 30.7064 16.0645 30.7064C16.0645 30.6875 16.0645 30.6592 16.0645 30.6309ZM16.0741 27.8936C16.0741 27.9502 16.0741 28.0163 16.0741 28.0729C18.5732 27.9785 21.0724 27.9502 23.5619 27.7803C25.0421 27.6859 26.3206 27.0346 27.2818 25.8642C28.2526 24.6748 28.5506 23.2684 28.589 21.8054C28.6563 18.9265 28.6947 16.0475 28.6851 13.1686C28.6851 11.6489 28.6275 10.1198 28.5025 8.60012C28.3679 6.90108 27.6951 5.42859 26.2244 4.42805C25.0518 3.62573 23.6868 3.38031 22.3027 3.36143C18.7943 3.3048 15.2859 3.26704 11.7775 3.29536C10.4702 3.3048 9.14375 3.38975 7.86534 3.64461C5.79874 4.05049 4.40499 5.32476 3.90516 7.3636C3.66485 8.34526 3.53029 9.38356 3.53029 10.3935C3.52067 14.424 3.53029 18.4451 3.62641 22.4755C3.66485 24.0519 4.25119 25.4866 5.5296 26.5532C6.68305 27.4971 8.04797 27.8464 9.48978 27.8747C11.691 27.9313 13.8825 27.8936 16.0741 27.8936Z" fill="white"/>
<path d="M16.0644 23.3816C11.7006 23.3721 8.14409 19.8986 8.1537 15.6227C8.16331 11.3468 11.7102 7.86375 16.0741 7.87319C20.438 7.87319 23.9848 11.3562 23.9848 15.6321C23.9848 19.908 20.4283 23.3816 16.0644 23.3816ZM16.0548 20.6348C18.8808 20.6442 21.1973 18.4166 21.2069 15.6793C21.2165 12.8759 18.9577 10.6294 16.1221 10.6105C13.2673 10.5916 10.97 12.8004 10.9412 15.5943C10.922 18.36 13.2097 20.6254 16.0548 20.6348Z" fill="white"/>
<path d="M26.1283 7.57129C26.1187 8.55295 25.2921 9.37415 24.2924 9.38359C23.2831 9.38359 22.4469 8.55295 22.4565 7.53353C22.4661 6.53299 23.2639 5.74011 24.2828 5.74011C25.3209 5.74011 26.1379 6.55187 26.1283 7.57129Z" fill="white"/>
</svg>
