<svg width="25" height="28" viewBox="0 0 25 28" fill="none" xmlns="http://www.w3.org/2000/svg">
<path d="M13.3798 0.927612C14.9362 0.927612 16.4226 0.927612 17.9352 0.927612C18.0226 2.78047 18.6871 4.38909 20.0599 5.68609C21.4151 6.96624 23.0677 7.60632 25 7.65685C25 9.11387 25 10.5456 25 12.0279C22.4119 12.0111 20.1123 11.2447 17.9527 9.72868C17.9527 9.94766 17.9527 10.0908 17.9527 10.234C17.9702 13.2828 17.9877 16.3316 17.9877 19.372C17.9877 21.3933 17.3756 23.2209 16.0116 24.7621C14.0268 27.0108 11.4824 28.013 8.4222 27.7856C4.84608 27.5245 1.37488 24.9558 0.614187 20.9974C-0.225196 16.7106 2.60772 12.5248 7.02322 11.4384C8.17738 11.152 9.34027 11.0846 10.5381 11.2783C10.5381 12.7606 10.5381 14.2177 10.5381 15.6999C9.7075 15.5315 8.89435 15.4641 8.07245 15.6999C6.10515 16.2558 4.88979 18.0581 5.14336 20.071C5.37069 21.8733 7.11066 23.4061 9.0255 23.4651C11.1327 23.5409 12.9076 22.2186 13.2836 20.2731C13.3536 19.9278 13.3798 19.5825 13.3798 19.2288C13.3885 13.2996 13.3885 7.37892 13.3885 1.44978C13.3798 1.29818 13.3798 1.12974 13.3798 0.927612Z" fill="white"/>
</svg>
